HIERARCHY
ROOT Hips
{
  OFFSET 5.84602e-005 68.8428 3.50346
  CHANNELS 6 Xposition Yposition Zposition Zrotation Xrotation Yrotation
  JOINT Spine
  {
    OFFSET 0 8.597 -4.6522
    CHANNELS 3 Zrotation Xrotation Yrotation
    JOINT Spine1
    {
      OFFSET 0 7.8454 0.4098
      CHANNELS 3 Zrotation Xrotation Yrotation
      JOINT Spine2
      {
        OFFSET 0 9.7078 -2.1609
        CHANNELS 3 Zrotation Xrotation Yrotation
        JOINT Neck
        {
          OFFSET 0 21.8761 -0.4549
          CHANNELS 3 Zrotation Xrotation Yrotation
          JOINT Head
          {
            OFFSET 0 12.3537 3.3602
            CHANNELS 3 Zrotation Xrotation Yrotation
            End Site
            {
              OFFSET 0.0001 18.9506 0.5657
            }
          }
        }
        JOINT LeftShoulder
        {
          OFFSET 2.2086 21.1115 7.2329
          CHANNELS 3 Zrotation Xrotation Yrotation
          JOINT LeftArm
          {
            OFFSET 13.1193 3.0282 -4.8998
            CHANNELS 3 Zrotation Xrotation Yrotation
            JOINT LeftForeArm
            {
              OFFSET 27.4081 -0.0973053 -0.2375
              CHANNELS 3 Zrotation Xrotation Yrotation
              JOINT LeftHand
              {
                OFFSET 22.8641 0.0662994 -0.1369
                CHANNELS 3 Zrotation Xrotation Yrotation
                JOINT LeftHandIndex1
                {
                  OFFSET 8.8614 0.775009 2.4612
                  CHANNELS 3 Zrotation Xrotation Yrotation
                  JOINT LeftHandIndex2
                  {
                    OFFSET 3.3146 -0.808304 0.5841
                    CHANNELS 3 Zrotation Xrotation Yrotation
                    JOINT LeftHandIndex3
                    {
                      OFFSET 2.2628 -0.552002 0.3989
                      CHANNELS 3 Zrotation Xrotation Yrotation
                      End Site
                      {
                        OFFSET 1.6102 -0.4807 0.2612
                      }
                    }
                  }
                }
                JOINT LeftHandMiddle1
                {
                  OFFSET 8.9937 0.895004 0.2143
                  CHANNELS 3 Zrotation Xrotation Yrotation
                  JOINT LeftHandMiddle2
                  {
                    OFFSET 4.0984 0.0113983 -0.0242
                    CHANNELS 3 Zrotation Xrotation Yrotation
                    JOINT LeftHandMiddle3
                    {
                      OFFSET 2.2716 0.00689697 -0.0138001
                      CHANNELS 3 Zrotation Xrotation Yrotation
                      End Site
                      {
                        OFFSET 2.0404 -0.1441 0.0027
                      }
                    }
                  }
                }
                JOINT LeftHandRing1
                {
                  OFFSET 8.5234 0.597198 -2.0164
                  CHANNELS 3 Zrotation Xrotation Yrotation
                  JOINT LeftHandRing2
                  {
                    OFFSET 3.7188 -0.188293 -0.2328
                    CHANNELS 3 Zrotation Xrotation Yrotation
                    JOINT LeftHandRing3
                    {
                      OFFSET 2.1191 -0.106598 -0.1332
                      CHANNELS 3 Zrotation Xrotation Yrotation
                      End Site
                      {
                        OFFSET 1.8737 -0.2304 -0.0886
                      }
                    }
                  }
                }
                JOINT LeftHandPinky1
                {
                  OFFSET 7.9094 -0.601089 -3.4825
                  CHANNELS 3 Zrotation Xrotation Yrotation
                  JOINT LeftHandPinky2
                  {
                    OFFSET 2.2874 -0.477005 -0.6314
                    CHANNELS 3 Zrotation Xrotation Yrotation
                    JOINT LeftHandPinky3
                    {
                      OFFSET 1.6774 -0.349396 -0.4633
                      CHANNELS 3 Zrotation Xrotation Yrotation
                      End Site
                      {
                        OFFSET 1.4888 -0.4091 -0.3416
                      }
                    }
                  }
                }
                JOINT LeftHandThumb1
                {
                  OFFSET 1.833 -1.3875 1.3896
                  CHANNELS 3 Zrotation Xrotation Yrotation
                  JOINT LeftHandThumb2
                  {
                    OFFSET 3.4129 -1.121 2.5732
                    CHANNELS 3 Zrotation Xrotation Yrotation
                    JOINT LeftHandThumb3
                    {
                      OFFSET 2.2474 -0.804199 1.6192
                      CHANNELS 3 Zrotation Xrotation Yrotation
                      End Site
                      {
                        OFFSET 1.6527 -0.5689 1.1317
                      }
                    }
                  }
                }
              }
            }
          }
        }
        JOINT RightShoulder
        {
          OFFSET -2.2086 21.1115 7.2329
          CHANNELS 3 Zrotation Xrotation Yrotation
          JOINT RightArm
          {
            OFFSET -13.1216 3.0287 -4.9007
            CHANNELS 3 Zrotation Xrotation Yrotation
            JOINT RightForeArm
            {
              OFFSET -27.4081 -0.0973053 -0.2375
              CHANNELS 3 Zrotation Xrotation Yrotation
              JOINT RightHand
              {
                OFFSET -22.8641 0.0664063 -0.1369
                CHANNELS 3 Zrotation Xrotation Yrotation
                JOINT RightHandIndex1
                {
                  OFFSET -8.8614 0.774994 2.4612
                  CHANNELS 3 Zrotation Xrotation Yrotation
                  JOINT RightHandIndex2
                  {
                    OFFSET -3.3146 -0.808304 0.5841
                    CHANNELS 3 Zrotation Xrotation Yrotation
                    JOINT RightHandIndex3
                    {
                      OFFSET -2.2628 -0.552002 0.3989
                      CHANNELS 3 Zrotation Xrotation Yrotation
                      End Site
                      {
                        OFFSET -1.6102 -0.4807 0.2612
                      }
                    }
                  }
                }
                JOINT RightHandMiddle1
                {
                  OFFSET -8.9937 0.894989 0.2143
                  CHANNELS 3 Zrotation Xrotation Yrotation
                  JOINT RightHandMiddle2
                  {
                    OFFSET -4.0984 0.0113983 -0.0242
                    CHANNELS 3 Zrotation Xrotation Yrotation
                    JOINT RightHandMiddle3
                    {
                      OFFSET -2.2716 0.00691223 -0.0138001
                      CHANNELS 3 Zrotation Xrotation Yrotation
                      End Site
                      {
                        OFFSET -2.0404 -0.1441 0.0027
                      }
                    }
                  }
                }
                JOINT RightHandRing1
                {
                  OFFSET -8.5234 0.597198 -2.0164
                  CHANNELS 3 Zrotation Xrotation Yrotation
                  JOINT RightHandRing2
                  {
                    OFFSET -3.7188 -0.188309 -0.2328
                    CHANNELS 3 Zrotation Xrotation Yrotation
                    JOINT RightHandRing3
                    {
                      OFFSET -2.1191 -0.106598 -0.1332
                      CHANNELS 3 Zrotation Xrotation Yrotation
                      End Site
                      {
                        OFFSET -1.8737 -0.2304 -0.0886
                      }
                    }
                  }
                }
                JOINT RightHandPinky1
                {
                  OFFSET -7.9094 -0.601105 -3.4825
                  CHANNELS 3 Zrotation Xrotation Yrotation
                  JOINT RightHandPinky2
                  {
                    OFFSET -2.2874 -0.477005 -0.6314
                    CHANNELS 3 Zrotation Xrotation Yrotation
                    JOINT RightHandPinky3
                    {
                      OFFSET -1.6774 -0.349396 -0.4633
                      CHANNELS 3 Zrotation Xrotation Yrotation
                      End Site
                      {
                        OFFSET -1.4888 -0.4091 -0.3416
                      }
                    }
                  }
                }
                JOINT RightHandThumb1
                {
                  OFFSET -1.833 -1.38751 1.3896
                  CHANNELS 3 Zrotation Xrotation Yrotation
                  JOINT RightHandThumb2
                  {
                    OFFSET -3.41299 -1.12099 2.5732
                    CHANNELS 3 Zrotation Xrotation Yrotation
                    JOINT RightHandThumb3
                    {
                      OFFSET -2.24741 -0.804108 1.6192
                      CHANNELS 3 Zrotation Xrotation Yrotation
                      End Site
                      {
                        OFFSET -1.6527 -0.5689 1.1317
                      }
                    }
                  }
                }
              }
            }
          }
        }
      }
    }
  }
  JOINT RightUpLeg
  {
    OFFSET -9.1966 3.8861 -0.7581
    CHANNELS 3 Zrotation Xrotation Yrotation
    JOINT RightLeg
    {
      OFFSET -0.7359 -41.0265 0
      CHANNELS 3 Zrotation Xrotation Yrotation
      JOINT RightFoot
      {
        OFFSET 0 -40.2855 0
        CHANNELS 3 Zrotation Xrotation Yrotation
        JOINT RightToeBase
        {
          OFFSET 0 -5.6122 11.7359
          CHANNELS 3 Zrotation Xrotation Yrotation
          End Site
          {
            OFFSET 0 0 7.8731
          }
        }
      }
    }
  }
  JOINT LeftUpLeg
  {
    OFFSET 9.1965 3.8864 -0.7581
    CHANNELS 3 Zrotation Xrotation Yrotation
    JOINT LeftLeg
    {
      OFFSET 0.7359 -41.0268 0
      CHANNELS 3 Zrotation Xrotation Yrotation
      JOINT LeftFoot
      {
        OFFSET 0 -40.2855 0
        CHANNELS 3 Zrotation Xrotation Yrotation
        JOINT LeftToeBase
        {
          OFFSET 0 -5.6122 11.7359
          CHANNELS 3 Zrotation Xrotation Yrotation
          End Site
          {
            OFFSET 0 0 7.8731
          }
        }
      }
    }
  }
}
MOTION
Frames:	5
Frame Time:	0.0333333
39.7321 65.6647 7.83019 -0 -13.1744 -0 -0.198246 6.70845 -0.115254 -0.386819 13.4173 -0.209121 -0.386818 13.4172 -0.209121 -1.87002e-005 -30.6109 -5.99028e-006 -2.08964e-007 -0.613742 -1.12117e-008 -8.00266 -0.194465 7.34242e-007 -57.7731 -0.450867 -4.00186 3.58096e-006 2.95739e-006 -26.0015 -7.00031 2.16286e-007 1.0333e-006 1.81183e-008 -6.8758e-007 5.38322e-007 1.76556e-031 3.18055e-015 -3.18055e-015 3.13235e-008 -7.71135e-007 4.73264e-007 1.81183e-008 -6.8758e-007 5.38322e-007 -0.0146089 -8.82506e-005 -1.62507e-006 3.131e-008 -7.71195e-007 4.73165e-007 1.81183e-008 -6.8758e-007 5.38322e-007 -0.0187348 -0.00117507 6.01321e-005 3.13101e-008 -7.71213e-007 4.73137e-007 1.81183e-008 -6.8758e-007 5.38322e-007 -0.0122429 -0.00324069 0.000675413 3.13207e-008 -7.71188e-007 4.73181e-007 1.81183e-008 -6.8758e-007 5.38322e-007 1.76556e-031 3.18055e-015 -3.18055e-015 3.13235e-008 -7.71135e-007 4.73264e-007 7.99916 -0.194707 -1.06285e-006 57.7691 -0.452693 3.99878 2.02627e-005 8.15755e-006 25.9979 6.99684 -1.57778e-006 3.56381e-008 1.23626e-008 8.48611e-008 -6.35207e-008 -4.07048e-006 4.66887e-007 -1.1232e-007 6.18131e-009 4.24305e-008 -3.17603e-008 1.23626e-008 8.48611e-008 -6.35207e-008 0.0149909 -9.21616e-005 1.12235e-006 6.18126e-009 4.24264e-008 -3.17659e-008 1.23626e-008 8.48611e-008 -6.35207e-008 0.0190159 -0.00119339 -6.04141e-005 6.1809e-009 4.24253e-008 -3.17674e-008 1.23626e-008 8.48611e-008 -6.35207e-008 0.0122802 -0.00324981 -0.000676403 6.18014e-009 4.24272e-008 -3.17651e-008 1.23626e-008 8.48611e-008 -6.35207e-008 -4.07048e-006 4.66887e-007 -1.1232e-007 6.18131e-009 4.24305e-008 -3.17603e-008 -6.36147 -5.51894 -13.085 -2.39392 44.4196 1.60051 11.6885 -21.9898 -2.17637 4.72114e-016 9.93923e-016 3.18055e-015 7.33384 -5.38224 13.0139 2.09721 44.1399 -1.46244 -12.5182 -21.568 1.79802 5.46658e-016 -5.96354e-016 6.36111e-015 
39.7321 65.6061 7.72082 -0 -12.4982 -0 -0.200863 6.57444 -0.116733 -0.392052 13.1494 -0.212203 -0.392051 13.1494 -0.212203 -1.47369e-005 -30.1182 -3.06652e-006 -9.13568e-008 -0.613743 3.73248e-009 -8.00266 -0.194476 -1.2821e-006 -57.7731 -0.450871 -4.00186 1.21454e-005 -1.56642e-006 -26.0015 -7.00034 -6.24768e-007 -4.87568e-007 7.4325e-008 1.02849e-007 -9.93721e-007 -1.10501e-007 1.27248e-006 -8.27153e-008 3.96055e-008 -2.50636e-007 -1.95216e-007 7.4325e-008 1.02849e-007 -9.93721e-007 -0.0145651 -8.82678e-005 2.04479e-006 3.9605e-008 -2.50611e-007 -1.95247e-007 7.4325e-008 1.02849e-007 -9.93721e-007 -0.0186023 -0.00116572 6.09982e-005 3.96029e-008 -2.50604e-007 -1.95257e-007 7.4325e-008 1.02849e-007 -9.93721e-007 -0.0122915 -0.0032542 0.000679332 3.95982e-008 -2.50615e-007 -1.95244e-007 7.4325e-008 1.02849e-007 -9.93721e-007 -1.10501e-007 1.27248e-006 -8.27153e-008 3.96055e-008 -2.50636e-007 -1.95216e-007 7.99916 -0.194722 2.00571e-006 57.7691 -0.452692 3.99878 -9.36864e-007 5.08092e-006 25.9979 6.99683 -4.55813e-007 -2.51101e-006 -1.23588e-008 -8.48705e-008 6.35088e-008 -1.40616e-006 -5.22964e-007 -3.5463e-007 -1.23588e-008 -8.48705e-008 6.35088e-008 -1.23588e-008 -8.48705e-008 6.35088e-008 0.0150005 -9.16797e-005 1.41363e-006 -1.23586e-008 -8.48621e-008 6.35199e-008 -1.23588e-008 -8.48705e-008 6.35088e-008 0.0189954 -0.00119109 -5.9625e-005 -1.23579e-008 -8.48599e-008 6.3523e-008 -1.23588e-008 -8.48705e-008 6.35088e-008 0.0122709 -0.00324888 -0.000676549 -1.23564e-008 -8.48637e-008 6.35182e-008 -1.23588e-008 -8.48705e-008 6.35088e-008 -1.40616e-006 -5.22964e-007 -3.5463e-007 -1.23588e-008 -8.48705e-008 6.35088e-008 -6.36897 -6.32517 -13.1261 -2.394 44.4161 1.60032 11.6884 -21.9887 -2.17651 -6.45036e-008 3.21457e-007 1.66371e-006 7.34479 -6.18647 13.0637 2.09705 44.1358 -1.46222 -12.518 -21.567 1.79815 9.78553e-008 1.42606e-007 -2.38094e-006 
39.7321 65.554 7.62175 -0 -11.8893 -0 -0.203203 6.45393 -0.118034 -0.396741 12.9083 -0.214928 -0.396741 12.9083 -0.214928 -2.02635e-005 -29.6748 -5.62878e-006 -1.00625e-007 -0.613745 -4.14709e-008 -8.00266 -0.194451 1.61994e-006 -57.7731 -0.450865 -4.00186 -1.51568e-005 3.82391e-006 -26.0015 -7.00031 2.94453e-007 1.76374e-006 1.18585e-006 3.07188e-007 -1.74779e-007 5.27932e-008 -3.34146e-007 -2.60335e-007 1.31983e-008 -8.35366e-008 -6.50837e-008 1.18585e-006 3.07188e-007 -1.74779e-007 -0.0146722 -9.08327e-005 1.22484e-006 1.31981e-008 -8.35282e-008 -6.50944e-008 1.18585e-006 3.07188e-007 -1.74779e-007 -0.0186758 -0.00117096 5.75696e-005 -2.97711e-006 -2.30399e-007 -4.16261e-007 1.18585e-006 3.07188e-007 -1.74779e-007 -0.0122524 -0.00324419 0.000675612 1.31959e-008 -8.35297e-008 -6.5093e-008 1.18585e-006 3.07188e-007 -1.74779e-007 5.27932e-008 -3.34146e-007 -2.60335e-007 1.31983e-008 -8.35366e-008 -6.50837e-008 7.99916 -0.194694 -3.30115e-006 57.7691 -0.452693 3.99878 -6.42811e-006 -3.14589e-006 25.9979 6.99683 -8.41701e-007 -1.119e-006 7.41316e-008 5.09273e-007 -3.80989e-007 -1.85329e-008 -1.27318e-007 9.52473e-008 9.26645e-008 6.36591e-007 -4.76236e-007 7.41316e-008 5.09273e-007 -3.80989e-007 0.0150061 -9.16535e-005 1.02689e-007 9.26635e-008 6.36529e-007 -4.7632e-007 7.41316e-008 5.09273e-007 -3.80989e-007 0.0189969 -0.00119068 -5.96765e-005 9.26584e-008 6.36513e-007 -4.76343e-007 7.41316e-008 5.09273e-007 -3.80989e-007 0.012263 -0.00324611 -0.000675225 9.26467e-008 6.36541e-007 -4.76307e-007 7.41316e-008 5.09273e-007 -3.80989e-007 -1.85329e-008 -1.27318e-007 9.52473e-008 9.26645e-008 6.36591e-007 -4.76236e-007 -6.37629 -7.04968 -13.1632 -2.39343 44.4114 1.60004 11.6883 -21.9877 -2.17662 -8.8311e-007 6.88655e-008 1.65798e-006 7.35515 -6.9108 13.1086 2.09687 44.1318 -1.46203 -12.5179 -21.566 1.79829 -1.51573e-015 4.47266e-016 -0 
39.732 65.5026 7.52209 -0 -11.28 -0 -0.205226 6.33338 -0.119282 -0.400801 12.6672 -0.217589 -0.400801 12.6672 -0.217589 -2.03727e-005 -29.2313 -5.361e-006 2.12714e-007 -0.613739 1.77816e-008 -8.00266 -0.194473 -5.47919e-007 -57.7731 -0.45087 -4.00186 7.58313e-007 2.44173e-006 -26.0015 -7.00033 -1.09528e-006 8.04132e-008 2.95018e-006 3.97416e-007 5.45909e-007 -5.27774e-008 3.34115e-007 2.60377e-007 -2.98976e-006 -1.46829e-007 -3.50626e-007 2.95018e-006 3.97416e-007 5.45909e-007 -0.014584 -8.87601e-005 -4.13997e-007 -2.99168e-006 -1.46796e-007 -3.50642e-007 2.95018e-006 3.97416e-007 5.45909e-007 -0.0187613 -0.00117603 6.07913e-005 1.59028e-015 -4.77083e-015 -0 2.95018e-006 3.97416e-007 5.45909e-007 -0.0122557 -0.00324351 0.000676464 -1.78906e-015 1.59028e-015 1.59028e-015 2.95018e-006 3.97416e-007 5.45909e-007 -5.27774e-008 3.34115e-007 2.60377e-007 -2.98976e-006 -1.46829e-007 -3.50626e-007 7.99916 -0.19472 1.14683e-006 57.7691 -0.45269 3.99878 -2.0891e-005 -2.25994e-006 25.9979 6.99684 -3.44338e-007 1.69743e-006 3.7056e-008 2.54659e-007 -1.90466e-007 -4.03772e-006 6.776e-007 -2.70159e-007 -1.8528e-008 -1.27329e-007 9.52332e-008 3.7056e-008 2.54659e-007 -1.90466e-007 0.0150019 -9.06132e-005 1.99633e-006 -1.85278e-008 -1.27317e-007 9.52499e-008 3.7056e-008 2.54659e-007 -1.90466e-007 0.0189928 -0.00119097 -6.07702e-005 -1.85268e-008 -1.27314e-007 9.52545e-008 3.7056e-008 2.54659e-007 -1.90466e-007 0.0122538 -0.00324397 -0.00067625 -1.85244e-008 -1.27319e-007 9.52473e-008 3.7056e-008 2.54659e-007 -1.90466e-007 -4.03772e-006 6.776e-007 -2.70159e-007 -1.8528e-008 -1.27329e-007 9.52332e-008 -6.38398 -7.77608 -13.2004 -2.39337 44.408 1.59986 11.6882 -21.9868 -2.17675 -2.39812e-008 1.11974e-007 1.67797e-006 7.36615 -7.63555 13.1537 2.09666 44.128 -1.46185 -12.5178 -21.5652 1.79839 1.73326e-006 1.84788e-008 4.46432e-008 
39.732 65.4519 7.42185 -0 -10.6705 -0 -0.207169 6.21279 -0.120497 -0.404709 12.426 -0.220202 -0.404709 12.426 -0.220202 -1.42175e-006 -28.7874 -2.15229e-007 -2.39177e-007 -0.613743 1.16579e-007 -8.00265 -0.194446 3.07366e-006 -57.7731 -0.450865 -4.00186 -4.58013e-006 3.69001e-006 -26.0015 -7.00034 -1.58713e-006 -6.20688e-007 2.63802e-008 -1.67043e-007 -1.3021e-007 1.31901e-008 -8.35213e-008 -6.51048e-008 5.27604e-008 -3.34085e-007 -2.60419e-007 2.63802e-008 -1.67043e-007 -1.3021e-007 -0.0146473 -8.94119e-005 -2.40046e-007 1.23979e-006 -6.316e-007 1.68531e-007 2.63802e-008 -1.67043e-007 -1.3021e-007 -0.0188939 -0.00118483 6.17036e-005 5.27568e-008 -3.34042e-007 -2.60475e-007 2.63802e-008 -1.67043e-007 -1.3021e-007 -0.0121407 -0.00321444 0.000669639 5.27507e-008 -3.34058e-007 -2.60456e-007 2.63802e-008 -1.67043e-007 -1.3021e-007 1.31901e-008 -8.35213e-008 -6.51048e-008 5.27604e-008 -3.34085e-007 -2.60419e-007 7.99916 -0.194691 -3.87808e-006 57.7691 -0.452686 3.99878 -1.35938e-005 -6.11189e-006 25.9979 6.99685 -4.84006e-007 9.174e-007 1.23488e-008 8.48935e-008 -6.34797e-008 6.17443e-009 4.24467e-008 -3.17399e-008 2.46977e-008 1.69787e-007 -1.26959e-007 1.23488e-008 8.48935e-008 -6.34797e-008 0.0149925 -8.98338e-005 -1.68535e-006 2.46974e-008 1.6977e-007 -1.26982e-007 1.23488e-008 8.48935e-008 -6.34797e-008 0.0190024 -0.00118966 -5.87271e-005 2.46961e-008 1.69766e-007 -1.26988e-007 1.23488e-008 8.48935e-008 -6.34797e-008 0.0122619 -0.00324745 -0.000676407 2.4693e-008 1.69774e-007 -1.26978e-007 1.23488e-008 8.48935e-008 -6.34797e-008 6.17443e-009 4.24467e-008 -3.17399e-008 2.46977e-008 1.69787e-007 -1.26959e-007 -6.3922 -8.50247 -13.2378 -2.39316 44.4042 1.59963 11.6881 -21.9858 -2.17687 -4.06353e-008 2.1698e-007 1.67111e-006 7.37772 -8.3605 13.1991 2.0964 44.1238 -1.46164 -12.5177 -21.5643 1.79852 1.35422e-015 1.04362e-015 -6.36111e-015 
